{
  "asset": {
    "version": "2.0",
    "generator": "Microsoft GLTF Exporter 2.4.2.5"
  },
  "accessors": [
    {
      "bufferView": 0,
      "componentType": 5123,
      "count": 9216,
      "type": "SCALAR"
    },
    {
      "bufferView": 1,
      "componentType": 5126,
      "count": 1832,
      "type": "VEC3",
      "max": [
        100,
        100,
        100
      ],
      "min": [
        -100,
        -100,
        -100
      ]
    },
    {
      "bufferView": 2,
      "componentType": 5126,
      "count": 1832,
      "type": "VEC3"
    },
    {
      "bufferView": 3,
      "componentType": 5126,
      "count": 1832,
      "type": "VEC2"
    },
    {
      "bufferView": 4,
      "componentType": 5126,
      "count": 1832,
      "type": "VEC4"
    }
  ],
  "bufferViews": [
    {
      "buffer": 0,
      "byteOffset": 0,
      "byteLength": 18432,
      "target": 34963
    },
    {
      "buffer": 0,
      "byteOffset": 18432,
      "byteLength": 21984,
      "target": 34962
    },
    {
      "buffer": 0,
      "byteOffset": 40416,
      "byteLength": 21984,
      "target": 34962
    },
    {
      "buffer": 0,
      "byteOffset": 62400,
      "byteLength": 14656,
      "target": 34962
    },
    {
      "buffer": 0,
      "byteOffset": 77056,
      "byteLength": 29312,
      "target": 34962
    }
  ],
  "buffers": [
    {
      "uri": "neptune_data.bin",
      "byteLength": 106368
    }
  ],
  "images": [
    {
      "uri": "neptune_img0.png"
    },
    {
      "uri": "neptune_img1.png"
    },
    {
      "uri": "neptune_img2.png"
    },
    {
      "uri": "neptune_img3.png"
    }
  ],
  "materials": [
    {
      "pbrMetallicRoughness": {
        "baseColorTexture": {
          "index": 2
        },
        "metallicRoughnessTexture": {
          "index": 3
        }
      },
      "alphaMode": "MASK",
      "name": "131",
      "doubleSided": true,
      "extensions": {
        "KHR_materials_pbrSpecularGlossiness": {
          "diffuseTexture": {
            "index": 0
          },
          "specularGlossinessTexture": {
            "index": 1
          }
        }
      },
      "extras": {
        "MSFT_sRGBFactors": false
      }
    }
  ],
  "meshes": [
    {
      "name": "mesh_id103",
      "primitives": [
        {
          "attributes": {
            "POSITION": 1,
            "NORMAL": 2,
            "TEXCOORD_0": 3,
            "COLOR_0": 4
          },
          "indices": 0,
          "material": 0
        }
      ]
    }
  ],
  "nodes": [
    {
      "children": [
        1
      ],
      "name": "root"
    },
    {
      "translation": [
        -0.09980414807796478,
        0.11012750118970871,
        0.21398290991783142
      ],
      "rotation": [
        -0.02927655540406704,
        0.6111721396446228,
        -0.0014173750532791018,
        0.7909548878669739
      ],
      "scale": [
        0.0020644112955778837,
        0.0020369314588606358,
        0.002036933321505785
      ],
      "mesh": 0,
      "name": "node_id102"
    }
  ],
  "samplers": [
    {
      "minFilter": 9985
    }
  ],
  "scenes": [
    {
      "nodes": [
        0
      ]
    }
  ],
  "scene": 0,
  "textures": [
    {
      "name": "texture21",
      "sampler": 0,
      "source": 0
    },
    {
      "name": "texture22",
      "sampler": 0,
      "source": 1
    },
    {
      "name": "131_bc",
      "sampler": 0,
      "source": 2
    },
    {
      "name": "131_mr",
      "sampler": 0,
      "source": 3
    }
  ],
  "extensionsUsed": [
    "KHR_materials_pbrSpecularGlossiness"
  ]
}