{
  "asset": {
    "version": "2.0",
    "generator": "Microsoft GLTF Exporter 2.4.2.5"
  },
  "accessors": [
    {
      "bufferView": 0,
      "componentType": 5123,
      "count": 59400,
      "type": "SCALAR"
    },
    {
      "bufferView": 1,
      "componentType": 5126,
      "count": 10199,
      "type": "VEC3",
      "max": [
        10,
        10,
        9.999999046325684
      ],
      "min": [
        -9.999996185302734,
        -10,
        -9.999995231628418
      ]
    },
    {
      "bufferView": 2,
      "componentType": 5126,
      "count": 10199,
      "type": "VEC3"
    },
    {
      "bufferView": 3,
      "componentType": 5126,
      "count": 10199,
      "type": "VEC2"
    },
    {
      "bufferView": 4,
      "componentType": 5126,
      "count": 10199,
      "type": "VEC4"
    }
  ],
  "bufferViews": [
    {
      "buffer": 0,
      "byteOffset": 0,
      "byteLength": 118800,
      "target": 34963
    },
    {
      "buffer": 0,
      "byteOffset": 118800,
      "byteLength": 122388,
      "target": 34962
    },
    {
      "buffer": 0,
      "byteOffset": 241188,
      "byteLength": 122388,
      "target": 34962
    },
    {
      "buffer": 0,
      "byteOffset": 363576,
      "byteLength": 81592,
      "target": 34962
    },
    {
      "buffer": 0,
      "byteOffset": 445168,
      "byteLength": 163184,
      "target": 34962
    }
  ],
  "buffers": [
    {
      "uri": "mars_data.bin",
      "byteLength": 608352
    }
  ],
  "images": [
    {
      "uri": "mars_img0.png"
    },
    {
      "uri": "mars_img1.png"
    },
    {
      "uri": "mars_img2.png"
    },
    {
      "uri": "mars_img3.png"
    }
  ],
  "materials": [
    {
      "pbrMetallicRoughness": {
        "baseColorTexture": {
          "index": 2
        },
        "metallicRoughnessTexture": {
          "index": 3
        }
      },
      "alphaMode": "MASK",
      "name": "106",
      "doubleSided": true,
      "extensions": {
        "KHR_materials_pbrSpecularGlossiness": {
          "diffuseTexture": {
            "index": 0
          },
          "specularGlossinessTexture": {
            "index": 1
          }
        }
      },
      "extras": {
        "MSFT_sRGBFactors": false
      }
    }
  ],
  "meshes": [
    {
      "name": "mesh_id80",
      "primitives": [
        {
          "attributes": {
            "POSITION": 1,
            "NORMAL": 2,
            "TEXCOORD_0": 3,
            "COLOR_0": 4
          },
          "indices": 0,
          "material": 0
        }
      ]
    }
  ],
  "nodes": [
    {
      "children": [
        1
      ],
      "name": "root"
    },
    {
      "translation": [
        -0.09806178510189056,
        0.10820341855287552,
        0.2102668285369873
      ],
      "rotation": [
        0,
        0.2608369290828705,
        0,
        0.9653828740119934
      ],
      "scale": [
        0.018776731565594673,
        0.018776722252368927,
        0.018621880561113358
      ],
      "mesh": 0,
      "name": "node_id79"
    }
  ],
  "samplers": [
    {
      "minFilter": 9985
    }
  ],
  "scenes": [
    {
      "nodes": [
        0
      ]
    }
  ],
  "scene": 0,
  "textures": [
    {
      "name": "texture16",
      "sampler": 0,
      "source": 0
    },
    {
      "name": "texture17",
      "sampler": 0,
      "source": 1
    },
    {
      "name": "106_bc",
      "sampler": 0,
      "source": 2
    },
    {
      "name": "106_mr",
      "sampler": 0,
      "source": 3
    }
  ],
  "extensionsUsed": [
    "KHR_materials_pbrSpecularGlossiness"
  ]
}