{
  "asset": {
    "version": "2.0",
    "generator": "Microsoft GLTF Exporter 2.4.2.5"
  },
  "accessors": [
    {
      "bufferView": 0,
      "componentType": 5123,
      "count": 59400,
      "type": "SCALAR"
    },
    {
      "bufferView": 1,
      "componentType": 5126,
      "count": 10199,
      "type": "VEC3",
      "max": [
        10,
        10,
        9.999999046325684
      ],
      "min": [
        -9.999996185302734,
        -10,
        -9.999995231628418
      ]
    },
    {
      "bufferView": 2,
      "componentType": 5126,
      "count": 10199,
      "type": "VEC3"
    },
    {
      "bufferView": 3,
      "componentType": 5126,
      "count": 10199,
      "type": "VEC2"
    },
    {
      "bufferView": 4,
      "componentType": 5126,
      "count": 10199,
      "type": "VEC4"
    }
  ],
  "bufferViews": [
    {
      "buffer": 0,
      "byteOffset": 0,
      "byteLength": 118800,
      "target": 34963
    },
    {
      "buffer": 0,
      "byteOffset": 118800,
      "byteLength": 122388,
      "target": 34962
    },
    {
      "buffer": 0,
      "byteOffset": 241188,
      "byteLength": 122388,
      "target": 34962
    },
    {
      "buffer": 0,
      "byteOffset": 363576,
      "byteLength": 81592,
      "target": 34962
    },
    {
      "buffer": 0,
      "byteOffset": 445168,
      "byteLength": 163184,
      "target": 34962
    }
  ],
  "buffers": [
    {
      "uri": "mercury_data.bin",
      "byteLength": 608352
    }
  ],
  "images": [
    {
      "uri": "mercury_img0.png"
    },
    {
      "uri": "mercury_img1.png"
    },
    {
      "uri": "mercury_img2.png"
    },
    {
      "uri": "mercury_img3.png"
    }
  ],
  "materials": [
    {
      "pbrMetallicRoughness": {
        "baseColorTexture": {
          "index": 2
        },
        "metallicRoughnessTexture": {
          "index": 3
        }
      },
      "alphaMode": "MASK",
      "name": "59",
      "doubleSided": true,
      "extensions": {
        "KHR_materials_pbrSpecularGlossiness": {
          "diffuseTexture": {
            "index": 0
          },
          "specularGlossinessTexture": {
            "index": 1
          }
        }
      },
      "extras": {
        "MSFT_sRGBFactors": false
      }
    }
  ],
  "meshes": [
    {
      "name": "mesh_id40",
      "primitives": [
        {
          "attributes": {
            "POSITION": 1,
            "NORMAL": 2,
            "TEXCOORD_0": 3,
            "COLOR_0": 4
          },
          "indices": 0,
          "material": 0
        }
      ]
    }
  ],
  "nodes": [
    {
      "translation": [
        -4.673004383448642e-8,
        0,
        0.25600042939186096
      ],
      "rotation": [
        -1.4558382567465632e-22,
        0.23825804889202118,
        5.2939579398232945e-22,
        0.9712018966674805
      ],
      "scale": [
        0.018973374739289284,
        0.01853320561349392,
        0.018973374739289284
      ],
      "mesh": 0,
      "name": "node_id39"
    },
    {
      "children": [
        0
      ],
      "name": "root"
    }
  ],
  "samplers": [
    {
      "minFilter": 9985
    }
  ],
  "scenes": [
    {
      "nodes": [
        1
      ]
    }
  ],
  "scene": 0,
  "textures": [
    {
      "name": "texture8",
      "sampler": 0,
      "source": 0
    },
    {
      "name": "texture9",
      "sampler": 0,
      "source": 1
    },
    {
      "name": "59_bc",
      "sampler": 0,
      "source": 2
    },
    {
      "name": "59_mr",
      "sampler": 0,
      "source": 3
    }
  ],
  "extensionsUsed": [
    "KHR_materials_pbrSpecularGlossiness"
  ]
}