{
  "asset": {
    "version": "2.0",
    "generator": "Microsoft GLTF Exporter 2.4.2.5"
  },
  "accessors": [
    {
      "bufferView": 0,
      "componentType": 5123,
      "count": 9216,
      "type": "SCALAR"
    },
    {
      "bufferView": 1,
      "componentType": 5126,
      "count": 1630,
      "type": "VEC3",
      "max": [
        100,
        100,
        100
      ],
      "min": [
        -100,
        -100,
        -100
      ]
    },
    {
      "bufferView": 2,
      "componentType": 5126,
      "count": 1630,
      "type": "VEC3"
    },
    {
      "bufferView": 3,
      "componentType": 5126,
      "count": 1630,
      "type": "VEC2"
    },
    {
      "bufferView": 4,
      "componentType": 5126,
      "count": 1630,
      "type": "VEC4"
    }
  ],
  "bufferViews": [
    {
      "buffer": 0,
      "byteOffset": 0,
      "byteLength": 18432,
      "target": 34963
    },
    {
      "buffer": 0,
      "byteOffset": 18432,
      "byteLength": 19560,
      "target": 34962
    },
    {
      "buffer": 0,
      "byteOffset": 37992,
      "byteLength": 19560,
      "target": 34962
    },
    {
      "buffer": 0,
      "byteOffset": 57552,
      "byteLength": 13040,
      "target": 34962
    },
    {
      "buffer": 0,
      "byteOffset": 70592,
      "byteLength": 26080,
      "target": 34962
    }
  ],
  "buffers": [
    {
      "uri": "venus_data.bin",
      "byteLength": 96672
    }
  ],
  "images": [
    {
      "uri": "venus_img0.png"
    },
    {
      "uri": "venus_img1.png"
    },
    {
      "uri": "venus_img2.png"
    },
    {
      "uri": "venus_img3.png"
    }
  ],
  "materials": [
    {
      "pbrMetallicRoughness": {
        "baseColorTexture": {
          "index": 2
        },
        "metallicRoughnessTexture": {
          "index": 3
        }
      },
      "alphaMode": "MASK",
      "name": "96",
      "doubleSided": true,
      "extensions": {
        "KHR_materials_pbrSpecularGlossiness": {
          "diffuseTexture": {
            "index": 0
          },
          "specularGlossinessTexture": {
            "index": 1
          }
        }
      },
      "extras": {
        "MSFT_sRGBFactors": false
      }
    }
  ],
  "meshes": [
    {
      "name": "mesh_id72",
      "primitives": [
        {
          "attributes": {
            "POSITION": 1,
            "NORMAL": 2,
            "TEXCOORD_0": 3,
            "COLOR_0": 4
          },
          "indices": 0,
          "material": 0
        }
      ]
    }
  ],
  "nodes": [
    {
      "children": [
        1
      ],
      "name": "root"
    },
    {
      "translation": [
        -0.09806719422340393,
        0.10819642245769501,
        0.21026796102523804
      ],
      "rotation": [
        -0.14115428924560547,
        -0.6132041215896606,
        0.6332974433898926,
        0.45054468512535095
      ],
      "scale": [
        0.001521046506240964,
        0.0015210456913337111,
        0.001521047204732895
      ],
      "mesh": 0,
      "name": "node_id71"
    }
  ],
  "samplers": [
    {
      "minFilter": 9985
    }
  ],
  "scenes": [
    {
      "nodes": [
        0
      ]
    }
  ],
  "scene": 0,
  "textures": [
    {
      "name": "texture14",
      "sampler": 0,
      "source": 0
    },
    {
      "name": "texture15",
      "sampler": 0,
      "source": 1
    },
    {
      "name": "96_bc",
      "sampler": 0,
      "source": 2
    },
    {
      "name": "96_mr",
      "sampler": 0,
      "source": 3
    }
  ],
  "extensionsUsed": [
    "KHR_materials_pbrSpecularGlossiness"
  ]
}