{
  "asset": {
    "version": "2.0",
    "generator": "Microsoft GLTF Exporter 2.4.2.5"
  },
  "accessors": [
    {
      "bufferView": 0,
      "componentType": 5123,
      "count": 59400,
      "type": "SCALAR"
    },
    {
      "bufferView": 1,
      "componentType": 5126,
      "count": 10199,
      "type": "VEC3",
      "max": [
        10,
        10,
        9.999999046325684
      ],
      "min": [
        -9.999996185302734,
        -10,
        -9.999995231628418
      ]
    },
    {
      "bufferView": 2,
      "componentType": 5126,
      "count": 10199,
      "type": "VEC3"
    },
    {
      "bufferView": 3,
      "componentType": 5126,
      "count": 10199,
      "type": "VEC2"
    }
  ],
  "bufferViews": [
    {
      "buffer": 0,
      "byteOffset": 0,
      "byteLength": 118800,
      "target": 34963
    },
    {
      "buffer": 0,
      "byteOffset": 118800,
      "byteLength": 122388,
      "target": 34962
    },
    {
      "buffer": 0,
      "byteOffset": 241188,
      "byteLength": 122388,
      "target": 34962
    },
    {
      "buffer": 0,
      "byteOffset": 363576,
      "byteLength": 81592,
      "target": 34962
    }
  ],
  "buffers": [
    {
      "uri": "jupiter_data.bin",
      "byteLength": 445168
    }
  ],
  "images": [
    {
      "uri": "jupiter_img0.png"
    },
    {
      "uri": "jupiter_img1.png"
    },
    {
      "uri": "jupiter_img2.png"
    }
  ],
  "materials": [
    {
      "pbrMetallicRoughness": {
        "baseColorTexture": {
          "index": 1
        },
        "metallicRoughnessTexture": {
          "index": 2
        }
      },
      "alphaMode": "MASK",
      "name": "78",
      "doubleSided": true,
      "extensions": {
        "KHR_materials_pbrSpecularGlossiness": {
          "diffuseTexture": {
            "index": 0
          },
          "specularFactor": [
            0.13725490868091583,
            0.13725490868091583,
            0.13725490868091583
          ],
          "glossinessFactor": 0
        }
      },
      "extras": {
        "MSFT_sRGBFactors": true
      }
    }
  ],
  "meshes": [
    {
      "name": "mesh_id56",
      "primitives": [
        {
          "attributes": {
            "POSITION": 1,
            "NORMAL": 2,
            "TEXCOORD_0": 3
          },
          "indices": 0,
          "material": 0
        }
      ]
    }
  ],
  "nodes": [
    {
      "children": [
        1
      ],
      "name": "root"
    },
    {
      "translation": [
        -3.8146978909026075e-8,
        0,
        0.2560003995895386
      ],
      "scale": [
        0.025600001215934753,
        0.025600001215934753,
        0.025600001215934753
      ],
      "mesh": 0,
      "name": "node_id55"
    }
  ],
  "samplers": [
    {
      "minFilter": 9985
    }
  ],
  "scenes": [
    {
      "nodes": [
        0
      ]
    }
  ],
  "scene": 0,
  "textures": [
    {
      "name": "texture11",
      "sampler": 0,
      "source": 0
    },
    {
      "name": "78_bc",
      "sampler": 0,
      "source": 1
    },
    {
      "name": "78_mr",
      "sampler": 0,
      "source": 2
    }
  ],
  "extensionsUsed": [
    "KHR_materials_pbrSpecularGlossiness"
  ]
}