{
  "asset": {
    "version": "2.0",
    "generator": "Microsoft GLTF Exporter 2.4.2.5"
  },
  "accessors": [
    {
      "bufferView": 0,
      "componentType": 5123,
      "count": 59400,
      "type": "SCALAR"
    },
    {
      "bufferView": 1,
      "componentType": 5123,
      "count": 1200,
      "type": "SCALAR"
    },
    {
      "bufferView": 2,
      "componentType": 5126,
      "count": 10199,
      "type": "VEC3",
      "max": [
        10,
        10,
        9.999999046325684
      ],
      "min": [
        -9.999996185302734,
        -10,
        -9.999995231628418
      ]
    },
    {
      "bufferView": 3,
      "componentType": 5126,
      "count": 402,
      "type": "VEC3",
      "max": [
        -3.759725570678711,
        8.280747405321493e-15,
        0.6516180038452148
      ],
      "min": [
        -8.97266960144043,
        -8.280747405321493e-15,
        -0.6516180038452148
      ]
    },
    {
      "bufferView": 4,
      "componentType": 5126,
      "count": 10199,
      "type": "VEC3"
    },
    {
      "bufferView": 5,
      "componentType": 5126,
      "count": 402,
      "type": "VEC3"
    },
    {
      "bufferView": 6,
      "componentType": 5126,
      "count": 10199,
      "type": "VEC2"
    },
    {
      "bufferView": 7,
      "componentType": 5126,
      "count": 402,
      "type": "VEC2"
    }
  ],
  "bufferViews": [
    {
      "buffer": 0,
      "byteOffset": 0,
      "byteLength": 118800,
      "target": 34963
    },
    {
      "buffer": 0,
      "byteOffset": 118800,
      "byteLength": 2400,
      "target": 34963
    },
    {
      "buffer": 0,
      "byteOffset": 121200,
      "byteLength": 122388,
      "target": 34962
    },
    {
      "buffer": 0,
      "byteOffset": 243588,
      "byteLength": 4824,
      "target": 34962
    },
    {
      "buffer": 0,
      "byteOffset": 248412,
      "byteLength": 122388,
      "target": 34962
    },
    {
      "buffer": 0,
      "byteOffset": 370800,
      "byteLength": 4824,
      "target": 34962
    },
    {
      "buffer": 0,
      "byteOffset": 375624,
      "byteLength": 81592,
      "target": 34962
    },
    {
      "buffer": 0,
      "byteOffset": 457216,
      "byteLength": 3216,
      "target": 34962
    }
  ],
  "buffers": [
    {
      "uri": "saturn_data.bin",
      "byteLength": 460432
    }
  ],
  "images": [
    {
      "uri": "saturn_img0.png"
    },
    {
      "uri": "saturn_img1.png"
    },
    {
      "uri": "saturn_img2.png"
    },
    {
      "uri": "saturn_img3.png"
    },
    {
      "uri": "saturn_img4.png"
    },
    {
      "uri": "saturn_img5.png"
    },
    {
      "uri": "saturn_img6.png"
    }
  ],
  "materials": [
    {
      "pbrMetallicRoughness": {
        "baseColorTexture": {
          "index": 1
        },
        "metallicRoughnessTexture": {
          "index": 2
        }
      },
      "alphaMode": "MASK",
      "name": "53",
      "doubleSided": true,
      "extensions": {
        "KHR_materials_pbrSpecularGlossiness": {
          "diffuseTexture": {
            "index": 0
          },
          "specularFactor": [
            0.0941176488995552,
            0.0941176488995552,
            0.0941176488995552
          ],
          "glossinessFactor": 0.11764705926179886
        }
      },
      "extras": {
        "MSFT_sRGBFactors": true
      }
    },
    {
      "pbrMetallicRoughness": {
        "baseColorTexture": {
          "index": 5
        },
        "metallicRoughnessTexture": {
          "index": 6
        }
      },
      "alphaMode": "MASK",
      "name": "54",
      "doubleSided": true,
      "extensions": {
        "KHR_materials_pbrSpecularGlossiness": {
          "diffuseTexture": {
            "index": 3
          },
          "specularGlossinessTexture": {
            "index": 4
          }
        }
      },
      "extras": {
        "MSFT_sRGBFactors": false
      }
    }
  ],
  "meshes": [
    {
      "name": "mesh_id32",
      "primitives": [
        {
          "attributes": {
            "POSITION": 2,
            "NORMAL": 4,
            "TEXCOORD_0": 6
          },
          "indices": 0,
          "material": 0
        }
      ]
    },
    {
      "name": "mesh_id34",
      "primitives": [
        {
          "attributes": {
            "POSITION": 3,
            "NORMAL": 5,
            "TEXCOORD_0": 7
          },
          "indices": 1,
          "material": 1
        }
      ]
    }
  ],
  "nodes": [
    {
      "translation": [
        0.0001786873472156003,
        -0.000021398021999630146,
        255.99951171875
      ],
      "scale": [
        9.559020042419434,
        9.559020042419434,
        9.559020042419434
      ],
      "mesh": 0,
      "name": "node_id31"
    },
    {
      "children": [
        2
      ],
      "name": "root"
    },
    {
      "children": [
        0,
        3
      ],
      "translation": [
        0.009754639118909836,
        0.09259022772312164,
        -0.2680075764656067
      ],
      "scale": [
        0.0010000000474974513,
        0.0010000000474974513,
        0.0010000000474974513
      ],
      "name": "node_id35"
    },
    {
      "translation": [
        625.2694091796875,
        -0.000021398021999630146,
        255.99951171875
      ],
      "scale": [
        98.21705627441406,
        98.21705627441406,
        392.86822509765625
      ],
      "mesh": 1,
      "name": "node_id33"
    }
  ],
  "samplers": [
    {
      "minFilter": 9985
    }
  ],
  "scenes": [
    {
      "nodes": [
        1
      ]
    }
  ],
  "scene": 0,
  "textures": [
    {
      "name": "texture5",
      "sampler": 0,
      "source": 0
    },
    {
      "name": "53_bc",
      "sampler": 0,
      "source": 1
    },
    {
      "name": "53_mr",
      "sampler": 0,
      "source": 2
    },
    {
      "name": "texture6",
      "sampler": 0,
      "source": 3
    },
    {
      "name": "texture7",
      "sampler": 0,
      "source": 4
    },
    {
      "name": "54_bc",
      "sampler": 0,
      "source": 5
    },
    {
      "name": "54_mr",
      "sampler": 0,
      "source": 6
    }
  ],
  "extensionsUsed": [
    "KHR_materials_pbrSpecularGlossiness"
  ]
}